{
  "accessors": [
    {
      "bufferView": 2,
      "componentType": 5126,
      "count": 2402,
      "max": [
        0.7995889782905579,
        0.800000011920929,
        0.7980110049247742
      ],
      "min": [
        -0.7995889782905579,
        -0.800000011920929,
        -0.7980110049247742
      ],
      "type": "VEC3"
    },
    {
      "bufferView": 2,
      "byteOffset": 28824,
      "componentType": 5126,
      "count": 2402,
      "max": [
        0.9994862675666809,
        1.0,
        0.997514009475708
      ],
      "min": [
        -0.9994862675666809,
        -1.0,
        -0.997514009475708
      ],
      "type": "VEC3"
    },
    {
      "bufferView": 1,
      "componentType": 5126,
      "count": 2402,
      "max": [
        0.9800000190734863,
        1.0
      ],
      "min": [
        0.0,
        0.0
      ],
      "type": "VEC2"
    },
    {
      "bufferView": 0,
      "componentType": 5125,
      "count": 14400,
      "type": "SCALAR"
    },
    {
      "bufferView": 2,
      "byteOffset": 57648,
      "componentType": 5126,
      "count": 5219,
      "max": [
        8.875,
        0.7551760077476501,
        4.3879499435424805
      ],
      "min": [
        -1.1305299997329712,
        -1.0255099534988403,
        -12.0
      ],
      "type": "VEC3"
    },
    {
      "bufferView": 2,
      "byteOffset": 120276,
      "componentType": 5126,
      "count": 5219,
      "max": [
        0.9997870922088623,
        0.9999892115592957,
        0.9997947812080383
      ],
      "min": [
        -0.9998680949211121,
        -0.9999717473983765,
        -0.99573814868927
      ],
      "type": "VEC3"
    },
    {
      "bufferView": 1,
      "byteOffset": 19216,
      "componentType": 5126,
      "count": 5219,
      "max": [
        0.0,
        0.0
      ],
      "min": [
        0.0,
        0.0
      ],
      "type": "VEC2"
    },
    {
      "bufferView": 0,
      "byteOffset": 57600,
      "componentType": 5125,
      "count": 35541,
      "type": "SCALAR"
    },
    {
      "bufferView": 2,
      "byteOffset": 182904,
      "componentType": 5126,
      "count": 1522,
      "max": [
        6.8998799324035645,
        0.15000000596046448,
        0.14987799525260925
      ],
      "min": [
        6.6001200675964355,
        -0.15000000596046448,
        -0.14987799525260925
      ],
      "type": "VEC3"
    },
    {
      "bufferView": 2,
      "byteOffset": 201168,
      "componentType": 5126,
      "count": 1522,
      "max": [
        0.999189019203186,
        1.0,
        0.999189019203186
      ],
      "min": [
        -0.999189019203186,
        -1.0,
        -0.999189019203186
      ],
      "type": "VEC3"
    },
    {
      "bufferView": 1,
      "byteOffset": 60968,
      "componentType": 5126,
      "count": 1522,
      "max": [
        0.0,
        0.0
      ],
      "min": [
        0.0,
        0.0
      ],
      "type": "VEC2"
    },
    {
      "bufferView": 0,
      "byteOffset": 199764,
      "componentType": 5125,
      "count": 9120,
      "type": "SCALAR"
    },
    {
      "bufferView": 2,
      "byteOffset": 219432,
      "componentType": 5126,
      "count": 48432,
      "max": [
        12.001199722290039,
        5.809000015258789,
        0.6300510168075562
      ],
      "min": [
        6.1255598068237305,
        -3.1962199211120605,
        -10.911399841308594
      ],
      "type": "VEC3"
    },
    {
      "bufferView": 2,
      "byteOffset": 800616,
      "componentType": 5126,
      "count": 48432,
      "max": [
        0.9998682141304016,
        0.999993622303009,
        0.9999998807907104
      ],
      "min": [
        -0.9998682141304016,
        -0.9999799728393555,
        -0.9999998807907104
      ],
      "type": "VEC3"
    },
    {
      "bufferView": 0,
      "byteOffset": 236244,
      "componentType": 5125,
      "count": 288072,
      "type": "SCALAR"
    },
    {
      "bufferView": 2,
      "byteOffset": 1381800,
      "componentType": 5126,
      "count": 61422,
      "max": [
        12.005900382995605,
        11.985300064086914,
        11.756199836730957
      ],
      "min": [
        -11.968899726867676,
        -11.974599838256836,
        -11.981399536132813
      ],
      "type": "VEC3"
    },
    {
      "bufferView": 2,
      "byteOffset": 2118864,
      "componentType": 5126,
      "count": 61422,
      "max": [
        0.9998757839202881,
        0.9999927878379822,
        0.9999926686286926
      ],
      "min": [
        -0.9998757839202881,
        -0.9999927878379822,
        -0.9999926686286926
      ],
      "type": "VEC3"
    },
    {
      "bufferView": 0,
      "byteOffset": 1388532,
      "componentType": 5125,
      "count": 360300,
      "type": "SCALAR"
    }
  ],
  "asset": {
    "extras": {
      "author": "Ignazio Pillitteri (https://sketchfab.com/gnaz)",
      "license": "CC-BY-4.0 (http://creativecommons.org/licenses/by/4.0/)",
      "source": "https://sketchfab.com/3d-models/mhd-simulation-of-a-star-with-a-hot-jupiter-999e19c132414b0d820656b7949d6f13",
      "title": "MHD simulation of a star with a hot Jupiter"
    },
    "generator": "Sketchfab-12.66.0",
    "version": "2.0"
  },
  "bufferViews": [
    {
      "buffer": 0,
      "byteLength": 2829732,
      "name": "floatBufferViews",
      "target": 34963
    },
    {
      "buffer": 0,
      "byteLength": 73144,
      "byteOffset": 2829732,
      "byteStride": 8,
      "name": "floatBufferViews",
      "target": 34962
    },
    {
      "buffer": 0,
      "byteLength": 2855928,
      "byteOffset": 2902876,
      "byteStride": 12,
      "name": "floatBufferViews",
      "target": 34962
    }
  ],
  "buffers": [
    {
      "byteLength": 5758804,
      "uri": "scene.bin"
    }
  ],
  "images": [
    {
      "uri": "textures/material_2_baseColor.jpeg"
    },
    {
      "uri": "textures/material_3_baseColor.jpeg"
    },
    {
      "uri": "textures/material_4_baseColor.jpeg"
    }
  ],
  "materials": [
    {
      "doubleSided": true,
      "emissiveFactor": [
        0.5,
        0.5,
        0.5
      ],
      "name": "material_0",
      "pbrMetallicRoughness": {
        "metallicFactor": 0.0,
        "roughnessFactor": 0.6
      }
    },
    {
      "alphaMode": "BLEND",
      "doubleSided": true,
      "emissiveFactor": [
        0.2,
        0.2,
        0.2
      ],
      "name": "material_1",
      "pbrMetallicRoughness": {
        "baseColorFactor": [
          1.0,
          1.0,
          1.0,
          0.515527950310559
        ],
        "metallicFactor": 0.0,
        "roughnessFactor": 0.6
      }
    },
    {
      "doubleSided": true,
      "emissiveFactor": [
        0.011220376243316536,
        0.1792758764173542,
        1.0
      ],
      "name": "material_2",
      "pbrMetallicRoughness": {
        "baseColorTexture": {
          "index": 0
        },
        "metallicFactor": 0.0,
        "roughnessFactor": 0.6
      }
    },
    {
      "alphaMode": "BLEND",
      "doubleSided": true,
      "emissiveFactor": [
        0.27929442735141413,
        0.167134151135255,
        0.0
      ],
      "name": "material_3",
      "pbrMetallicRoughness": {
        "baseColorFactor": [
          1.0,
          1.0,
          1.0,
          0.2360248447204969
        ],
        "baseColorTexture": {
          "index": 1
        },
        "metallicFactor": 0.0,
        "roughnessFactor": 0.6
      }
    },
    {
      "doubleSided": true,
      "emissiveFactor": [
        1.0,
        1.0,
        1.0
      ],
      "emissiveTexture": {
        "index": 2
      },
      "name": "material_4",
      "pbrMetallicRoughness": {
        "baseColorTexture": {
          "index": 2
        },
        "metallicFactor": 0.0,
        "roughnessFactor": 0.6
      }
    }
  ],
  "meshes": [
    {
      "name": "Object_0",
      "primitives": [
        {
          "attributes": {
            "NORMAL": 1,
            "POSITION": 0,
            "TEXCOORD_0": 2
          },
          "indices": 3,
          "material": 4,
          "mode": 4
        }
      ]
    },
    {
      "name": "Object_1",
      "primitives": [
        {
          "attributes": {
            "NORMAL": 5,
            "POSITION": 4,
            "TEXCOORD_0": 6
          },
          "indices": 7,
          "material": 3,
          "mode": 4
        }
      ]
    },
    {
      "name": "Object_2",
      "primitives": [
        {
          "attributes": {
            "NORMAL": 9,
            "POSITION": 8,
            "TEXCOORD_0": 10
          },
          "indices": 11,
          "material": 2,
          "mode": 4
        }
      ]
    },
    {
      "name": "Object_3",
      "primitives": [
        {
          "attributes": {
            "NORMAL": 13,
            "POSITION": 12
          },
          "indices": 14,
          "material": 1,
          "mode": 4
        }
      ]
    },
    {
      "name": "Object_4",
      "primitives": [
        {
          "attributes": {
            "NORMAL": 16,
            "POSITION": 15
          },
          "indices": 17,
          "material": 0,
          "mode": 4
        }
      ]
    }
  ],
  "nodes": [
    {
      "children": [
        1
      ],
      "matrix": [
        0.5744649767875671,
        1.3431877904009168e-32,
        -9.238101252689735e-17,
        0.0,
        7.080827525100121e-33,
        -0.5744649767875671,
        0.0,
        0.0,
        -9.238101252689735e-17,
        0.0,
        -0.5744649767875671,
        0.0,
        -2.0816681711721685e-17,
        -0.11653280258178708,
        -0.12724924087524417,
        1.0
      ],
      "name": "Sketchfab_model"
    },
    {
      "children": [
        2,
        4,
        6,
        8,
        10
      ],
      "name": "zbrush_concat.osgb.cleaner.materialmerger.gles"
    },
    {
      "children": [
        3
      ],
      "name": "/sketchfab-data/processing/models/5eb70f1b1921469d9e64c7d70a582c13/preprocess/star.obj"
    },
    {
      "mesh": 0,
      "name": "Object_3"
    },
    {
      "children": [
        5
      ],
      "name": "/sketchfab-data/processing/models/5eb70f1b1921469d9e64c7d70a582c13/preprocess/rhop_tseries_._64.obj"
    },
    {
      "mesh": 1,
      "name": "Object_5"
    },
    {
      "children": [
        7
      ],
      "name": "/sketchfab-data/processing/models/5eb70f1b1921469d9e64c7d70a582c13/preprocess/planet.obj"
    },
    {
      "mesh": 2,
      "name": "Object_7"
    },
    {
      "children": [
        9
      ],
      "name": "/sketchfab-data/processing/models/5eb70f1b1921469d9e64c7d70a582c13/preprocess/b2.obj"
    },
    {
      "mesh": 3,
      "name": "Object_9"
    },
    {
      "children": [
        11
      ],
      "name": "/sketchfab-data/processing/models/5eb70f1b1921469d9e64c7d70a582c13/preprocess/b1.obj"
    },
    {
      "mesh": 4,
      "name": "Object_11"
    }
  ],
  "samplers": [
    {
      "magFilter": 9729,
      "minFilter": 9987,
      "wrapS": 10497,
      "wrapT": 10497
    }
  ],
  "scene": 0,
  "scenes": [
    {
      "name": "Sketchfab_Scene",
      "nodes": [
        0
      ]
    }
  ],
  "textures": [
    {
      "sampler": 0,
      "source": 0
    },
    {
      "sampler": 0,
      "source": 1
    },
    {
      "sampler": 0,
      "source": 2
    }
  ]
}
