<svg xmlns="http://www.w3.org/2000/svg" version="1.1" xmlns:xlink="http://www.w3.org/1999/xlink" xmlns:svgjs="http://svgjs.dev/svgjs" width="1000" height="3632" viewBox="0 0 1000 3632"><g transform="matrix(1,0,0,1,0.1397067511470027,1.47044534412953)"><svg viewBox="0 0 68 247" data-background-color="#0a1627" preserveAspectRatio="xMidYMid meet" height="3632" width="1000" xmlns="http://www.w3.org/2000/svg" xmlns:xlink="http://www.w3.org/1999/xlink"><g id="tight-bounds" transform="matrix(1,0,0,1,-0.009499940922069072,-0.09999999999999432)"><svg viewBox="0 0 68.01861037907719 247.2" height="247.2" width="68.01861037907719"><g><svg></svg></g><g><svg viewBox="0 0 68.01861037907719 247.2" height="247.2" width="68.01861037907719"><g transform="matrix(1,0,0,1,0,47.215199999999996)"><svg viewBox="0 0 68.01861037907719 152.7696" height="152.7696" width="68.01861037907719"><g><svg viewBox="0 0 68.01861037907719 152.7696" height="152.7696" width="68.01861037907719"><g><svg viewBox="0 0 104.84552282481512 235.48273765770492" height="152.7696" width="68.01861037907719"><g><svg viewBox="0 0 104.84552282481512 235.48273765770492" height="235.48273765770492" width="104.84552282481512"><g id="textblocktransform"><svg viewBox="0 0 104.84552282481512 235.48273765770492" height="235.48273765770492" width="104.84552282481512" id="textblock"><g><svg viewBox="0 0 104.84552282481512 151.825483872" height="151.825483872" width="104.84552282481512"><g transform="matrix(1,0,0,1,0,0)"><svg width="104.84552282481512" viewBox="2.200000047683716 -39.20000076293945 27.44999885559082 39.75" height="151.825483872" data-palette-color="#ffffff"><path d="M11.75-33.25L11.75-33.25 11.75-16.4Q21.05-20.75 21.05-26.7L21.05-26.7Q24.4-26.7 26.45-25.35 28.5-24 28.5-21.58 28.5-19.15 25.78-17.3 23.05-15.45 17.2-13.7L17.2-13.7Q22.05-8.8 24.4-7.45 26.75-6.1 29.65-6.1L29.65-6.1Q29.65-2.95 28.15-1.2 26.65 0.55 24 0.55 21.35 0.55 18.57-2.13 15.8-4.8 11.75-11.35L11.75-11.35 11.75-5.15Q11.75-2.45 13.4-1.6L13.4-1.6Q11.5 0.55 8.8 0.55L8.8 0.55Q3.9 0.55 3.9-5.4L3.9-5.4 3.9-33.55Q3.9-36.05 2.2-37.1L2.2-37.1Q4.1-39.2 6.8-39.2L6.8-39.2Q11.75-39.2 11.75-33.25Z" opacity="1" transform="matrix(1,0,0,1,0,0)" fill="#ffffff" class="undefined-text-0" data-fill-palette-color="primary" id="text-0"></path></svg></g></svg></g><g transform="matrix(1,0,0,1,0,187.66783680256628)"><svg viewBox="0 0 104.84552282481512 47.814900855138625" height="47.814900855138625" width="104.84552282481512"><g transform="matrix(1,0,0,1,0,0)"><svg width="104.84552282481512" viewBox="1.25 -35.099998474121094 78.5 35.79999923706055" height="47.814900855138625" data-palette-color="#c1c1c1"><path d="M11.55 0.7L11.55 0.7Q8.6 0.7 6.25-0.63 3.9-1.95 2.58-4.73 1.25-7.5 1.25-11.8L1.25-11.8Q1.25-16.1 2.75-18.98 4.25-21.85 6.75-23.3 9.25-24.75 12.25-24.75L12.25-24.75Q14.05-24.75 15.7-24.33 17.35-23.9 18.6-23.05L18.6-23.05 18.6-29.55Q18.6-30.6 18.28-31.08 17.95-31.55 16.95-31.8L16.95-31.8 15.95-32 15.95-32.95 24.65-35.1 25.3-34.65 25.1-27.6 25.1-3.55Q25.1-2.6 25.45-1.98 25.8-1.35 26.7-1.1L26.7-1.1 27.25-0.95 27.25 0 18.95 0.55 18.5-1.55Q17.15-0.5 15.4 0.1 13.65 0.7 11.55 0.7ZM14.3-1.6L14.3-1.6Q16.45-1.6 18.35-3L18.35-3 18.35-21.6Q16.5-22.75 14.35-22.75L14.35-22.75Q11.9-22.75 10.15-20.18 8.4-17.6 8.4-11.9L8.4-11.9Q8.4-6.2 10.05-3.9 11.7-1.6 14.3-1.6ZM42-24.75L42-24.75Q45.15-24.75 47.4-23.45 49.65-22.15 50.87-19.88 52.1-17.6 52.1-14.65L52.1-14.65Q52.1-14 52.05-13.43 52-12.85 51.85-12.35L51.85-12.35 36.8-12.35Q36.85-7.2 38.72-4.95 40.6-2.7 44.2-2.7L44.2-2.7Q46.7-2.7 48.25-3.53 49.8-4.35 51.1-5.85L51.1-5.85 51.9-5.1Q50.4-2.35 47.82-0.83 45.25 0.7 41.7 0.7L41.7 0.7Q38.15 0.7 35.45-0.8 32.75-2.3 31.22-5.13 29.7-7.95 29.7-11.9L29.7-11.9Q29.7-16 31.47-18.85 33.25-21.7 36.07-23.23 38.9-24.75 42-24.75ZM41.75-23.3L41.75-23.3Q40.3-23.3 39.22-22.48 38.15-21.65 37.52-19.58 36.9-17.5 36.8-13.75L36.8-13.75 45.75-13.75Q46.3-18.8 45.35-21.05 44.4-23.3 41.75-23.3ZM68.59 0.15L65.7 0.15 56.9-21Q56.35-22.4 54.95-22.8L54.95-22.8 53.9-23.05 53.9-24 66.55-24 66.55-23.05 65.25-22.75Q63.65-22.35 64.3-20.7L64.3-20.7 69.55-6.75 74.45-20.6Q74.7-21.45 74.57-21.98 74.45-22.5 73.59-22.7L73.59-22.7 72.15-23.05 72.15-24 79.75-24 79.75-23.05 78.09-22.65Q76.65-22.3 76.15-20.85L76.15-20.85 68.59 0.15Z" opacity="1" transform="matrix(1,0,0,1,0,0)" fill="#ffffff" class="undefined-text-1" data-fill-palette-color="secondary" id="text-1"></path></svg></g></svg></g></svg></g></svg></g><g></g></svg></g></svg></g></svg></g><path d="M0 41.215L0 1 68.019 1 68.019 41.215 59.136 41.215 59.136 9.883 8.883 9.883 8.883 41.215 0 41.215M0 205.985L0 246.2 68.019 246.2 68.019 205.985 59.136 205.985 59.136 237.317 8.883 237.317 8.883 205.985 0 205.985" fill="#ffffff" stroke="transparent" data-fill-palette-color="primary"></path></svg></g><defs></defs></svg><rect width="68.01861037907719" height="247.2" fill="none" stroke="none" visibility="hidden"></rect></g></svg></g></svg>